<svg width="683" height="696" viewBox="0 0 683 696" fill="none" xmlns="http://www.w3.org/2000/svg">
<path opacity="0.1" d="M155.422 168.894L333.654 338.688L487.77 186.103V315.436L333.696 466.693L171.893 311.707V358.255L333.696 519.734L586.996 278.233V277.761L607.09 258.217C616.231 286.141 621.265 316.358 621.265 347.539C621.265 426.639 589.734 497.81 539.437 548.987C488.697 600.656 418.747 632.737 341.489 632.737C264.232 632.737 193.819 600.656 143.542 548.987C92.7812 497.36 61.7137 426.168 61.7137 347.539C61.7137 305.214 70.3705 265.182 86.8415 228.878L59.4179 200.976C37.0071 245.166 24.6644 294.97 24.6644 347.518C24.6644 436.84 60.3446 517.333 117.488 575.496C175.094 634.109 254.185 669.94 341.511 669.94C428.836 669.94 508.369 634.109 565.491 575.496C622.634 516.883 658.293 436.39 658.293 347.518C658.293 306.093 650.521 266.103 636.367 229.8L655.555 211.198C673.395 253.052 683 299.599 683 347.968C683 443.805 644.603 531.285 582.889 594.098C521.196 656.911 435.703 696 341.511 696C247.339 696 161.846 656.911 100.132 594.098C38.3973 531.349 0 444.341 0 348.011C0 279.626 19.6726 215.891 53.0359 161.908L116.561 224.742C96.9095 261.474 85.9358 303.842 85.9358 348.032C85.9358 420.146 114.729 484.802 160.919 532.271C207.088 579.246 271.119 608.113 341.511 608.113C411.902 608.113 475.912 578.796 522.081 532.271C568.229 485.273 597.043 420.125 597.043 348.032C597.043 334.081 595.674 320.58 593.842 307.078L333.717 555.073L148.092 368.991V254.531L333.633 432.404L463.99 305.257V245.23L333.507 373.663L139.877 188.482L139.414 188.953L121.574 171.723C128.44 162.872 135.749 154.493 143.521 146.606C194.24 94.9373 264.21 63.3273 341.468 63.3273C418.726 63.3273 488.655 95.4088 539.416 146.606C553.591 161.479 566.376 177.766 577.813 194.975L604.794 169.387C592.894 151.707 580.088 135.441 565.449 120.547C507.864 61.9343 428.773 26.1024 341.447 26.1024C254.121 26.1024 174.589 62.4058 117.446 120.547C109.673 128.455 101.922 137.306 94.5926 146.135L76.7525 128.926C84.0612 120.075 91.8544 111.246 100.09 102.867C161.361 39.0893 246.391 0 341.026 0C435.661 0 520.691 39.0893 582.405 101.902C603.446 122.84 621.265 146.585 635.904 172.623L617.6 190.303L590.177 216.834L571.431 234.493C558.646 207.984 541.711 184.26 521.618 163.772C475.448 116.797 411.418 87.9296 341.026 87.9296C270.635 87.9296 206.162 116.775 160.435 163.772C158.602 165.637 156.77 167.03 155.401 168.894H155.422Z" fill="#6A8274"/>
</svg>
