<svg width="326" height="327" viewBox="0 0 326 327" fill="none" xmlns="http://www.w3.org/2000/svg">
<path d="M74.9001 79.7L159.5 158.9L232.7 87.7V148.1L159.6 218.7L82.8001 146.4V168L159.6 243.4L279.9 130.7V130.5L289.4 121.4C293.7 134.4 296.1 148.5 296.1 163.1C296.1 200 281.1 233.2 257.2 257.1C233.1 281.2 199.9 296.2 163.2 296.2C126.5 296.2 93.1001 281.2 69.2001 257.1C45.1001 233 30.3001 199.8 30.3001 163.1C30.3001 143.3 34.4001 124.7 42.2001 107.7L29.2001 94.7C18.6001 115.3 12.7001 138.6 12.7001 163.1C12.7001 204.8 29.6001 242.3 56.8001 269.5C84.2001 296.8 121.7 313.6 163.2 313.6C204.7 313.6 242.4 296.9 269.5 269.5C296.6 242.2 313.6 204.6 313.6 163.1C313.6 143.8 309.9 125.1 303.2 108.2L312.3 99.5C320.8 119 325.3 140.7 325.3 163.3C325.3 208 307.1 248.8 277.8 278.1C248.5 307.4 207.9 325.6 163.2 325.6C118.5 325.6 77.9001 307.4 48.6001 278.1C19.3001 248.8 1.1001 208.2 1.1001 163.2C1.1001 131.3 10.4001 101.6 26.3001 76.4001L56.5001 105.7C47.2001 122.8 42.0001 142.6 42.0001 163.2C42.0001 196.8 55.7001 227 77.6001 249.2C99.5001 271.1 129.9 284.6 163.3 284.6C196.7 284.6 227.1 270.9 249 249.2C270.9 227.3 284.6 196.9 284.6 163.2C284.6 156.7 284 150.4 283.1 144.1L159.6 259.9L71.4001 173V119.6L159.5 202.6L221.4 143.3V115.3L159.4 175.2L67.5001 88.8L67.3001 89L58.8001 81C62.1001 76.9 65.5001 73 69.2001 69.3C93.3001 45.2 126.5 30.4001 163.2 30.4001C199.9 30.4001 233.1 45.4 257.2 69.3C263.9 76.2 270 83.8001 275.4 91.9001L288.2 80C282.6 71.8 276.5 64.2 269.5 57.2C242.2 29.8 204.7 13 163.2 13C121.7 13 84.0001 30 56.9001 57.1C53.2001 60.8 49.5001 64.9 46.0001 69L37.5001 61C41.0001 56.9 44.7001 52.8001 48.6001 48.8001C77.7001 19.1001 118.1 0.800049 163 0.800049C207.9 0.800049 248.3 19.0001 277.6 48.3001C287.6 58.1001 296.1 69.2 303 81.3L294.3 89.5L281.3 101.9L272.4 110.1C266.3 97.7001 258.3 86.7001 248.8 77.1001C226.9 55.2001 196.5 41.7 163.1 41.7C129.7 41.7 99.1001 55.2001 77.4001 77.1001C76.4001 78.2001 75.6001 78.8 74.9001 79.7Z" stroke="url(#paint0_radial_15_16)" stroke-miterlimit="10"/>
<defs>
<radialGradient id="paint0_radial_15_16" cx="0" cy="0" r="1" gradientUnits="userSpaceOnUse" gradientTransform="translate(155 156) rotate(124.227) scale(162.673 162.372)">
<stop/>
<stop offset="0.48" stop-color="white" stop-opacity="0.36"/>
<stop offset="1"/>
</radialGradient>
</defs>
</svg>
