<svg width="243" height="69" viewBox="0 0 243 69" fill="none" xmlns="http://www.w3.org/2000/svg">
<g clip-path="url(#clip0_637_65)">
<path d="M227.371 42.2659L211.695 23.1577H218.443L234.046 42.2239L227.371 42.2659Z" fill="#89BD24"/>
<path d="M174.661 12.6302C171.769 9.54842 167.909 8.0332 163.089 8.0332C160.396 8.0332 158.061 8.45168 156.031 9.33996C154.51 9.96534 153.087 11.0107 151.819 12.3688C150.497 13.7254 149.484 15.2421 148.772 16.9658C147.757 19.3164 147.25 22.1882 147.25 25.6371C147.25 31.0166 148.673 35.1935 151.666 38.2255C154.51 41.3073 158.368 42.8209 163.239 42.8209C168.012 42.8209 171.87 41.3073 174.713 38.2255C177.556 35.1422 179.028 30.9108 179.028 25.48C179.028 19.9947 177.556 15.712 174.663 12.6286L174.661 12.6302ZM169.687 34.047C167.96 36.032 165.829 36.9716 163.188 36.9716C160.497 36.9716 158.366 35.9807 156.639 34.047C154.914 32.062 154.051 29.1902 154.051 25.3757C154.051 21.5644 154.914 18.6382 156.589 16.6531C158.265 14.721 160.448 13.7798 163.188 13.7798C165.929 13.7798 168.113 14.7194 169.737 16.6002C171.413 18.5324 172.224 21.4057 172.224 25.2715C172.224 29.1358 171.361 32.1133 169.686 34.0454L169.687 34.047Z" fill="#423E3C"/>
<path d="M98.9704 42.2302L101.346 35.8613H110.901L103.27 16.9444L94.4205 42.2302H87.5872L99.3171 8.98877L106.965 8.9981L120.389 42.2302H98.9704Z" fill="#423E3C"/>
<path d="M79.6953 42.2302H72.0349L58.6309 8.98877H65.5233L75.7345 34.2994L84.5638 8.98877H91.4236L79.6953 42.2302Z" fill="#423E3C"/>
<path d="M123.937 42.2302V8.98877H130.451V35.8737H146.063V42.2302H123.937Z" fill="#423E3C"/>
<path d="M204.544 38.9631C202.113 41.3713 199.071 42.5769 195.42 42.5769C191.823 42.5769 188.796 41.3884 186.336 39.0067C183.876 36.6265 182.648 33.6194 182.648 29.9854V8.93262H189.163V29.9854C189.163 31.832 189.78 33.3767 191.019 34.615C192.257 35.8549 193.722 36.4741 195.421 36.4741C197.119 36.4741 198.592 35.8549 199.842 34.615C201.095 33.3752 201.72 31.832 201.72 29.9854V8.93262H208.193V29.9854C208.193 33.5634 206.976 36.555 204.544 38.9616V38.9631Z" fill="#423E3C"/>
<path d="M11.4703 12.2602L24.6241 24.5857L35.998 13.5094V22.8978L24.6272 33.8777L12.6859 22.6271V26.006L24.6272 37.7279L43.3211 20.1972V20.1629L44.804 18.7442C45.4787 20.7712 45.8502 22.9647 45.8502 25.2282C45.8502 30.9701 43.5232 36.1365 39.8111 39.8514C36.0664 43.6021 30.9041 45.9309 25.2024 45.9309C19.5006 45.9309 14.3041 43.6021 10.5936 39.8514C6.84737 36.1038 4.55455 30.9359 4.55455 25.2282C4.55455 22.1557 5.19343 19.2498 6.40901 16.6145L4.38511 14.589C2.73118 17.7968 1.82027 21.4121 1.82027 25.2266C1.82027 31.7106 4.45351 37.5537 8.67074 41.7757C12.9222 46.0305 18.7591 48.6315 25.2039 48.6315C31.6487 48.6315 37.5183 46.0305 41.734 41.7757C45.9512 37.521 48.5829 31.6779 48.5829 25.2266C48.5829 22.2195 48.0093 19.3167 46.9647 16.6814L48.3808 15.331C49.6974 18.3693 50.4063 21.7482 50.4063 25.2593C50.4063 32.2162 47.5725 38.5664 43.018 43.1261C38.465 47.6857 32.1554 50.5232 25.2039 50.5232C18.254 50.5232 11.9444 47.6857 7.38987 43.1261C2.83377 38.5711 0 32.2551 0 25.2624C0 20.2983 1.45186 15.6717 3.91411 11.753L8.60235 16.3142C7.15204 18.9806 6.34217 22.0562 6.34217 25.264C6.34217 30.4988 8.46711 35.1922 11.876 38.638C15.2834 42.048 20.0089 44.1435 25.2039 44.1435C30.3989 44.1435 35.1229 42.0153 38.5302 38.638C41.9361 35.2264 44.0625 30.4972 44.0625 25.264C44.0625 24.2512 43.9615 23.2711 43.8263 22.2911L24.6288 40.2932L10.9294 26.7854V18.4766L24.6225 31.3886L34.2431 22.1588V17.8014L24.6132 27.1245L10.3231 13.682L10.2889 13.7163L8.97231 12.4655C9.47906 11.823 10.0185 11.2148 10.592 10.6423C14.3352 6.89158 19.4991 4.59698 25.2008 4.59698C30.9025 4.59698 36.0633 6.92581 39.8096 10.6423C40.8557 11.7219 41.7993 12.9042 42.6433 14.1534L44.6346 12.296C43.7563 11.0125 42.8112 9.83178 41.7309 8.7506C37.481 4.49586 31.644 1.8948 25.1993 1.8948C18.7545 1.8948 12.8849 4.53009 8.66763 8.7506C8.09404 9.32464 7.522 9.96713 6.98105 10.6081L5.66443 9.35886C6.20382 8.71637 6.77897 8.07544 7.38676 7.46718C11.9087 2.83753 18.184 0 25.1682 0C32.1523 0 38.4277 2.83753 42.9822 7.39717C44.5351 8.91705 45.8502 10.6407 46.9305 12.5309L45.5797 13.8143L43.5558 15.7402L42.1723 17.0221C41.2288 15.0977 39.979 13.3756 38.496 11.8884C35.0887 8.47836 30.3631 6.38288 25.1682 6.38288C19.9732 6.38288 15.215 8.4768 11.8403 11.8884C11.705 12.0237 11.5698 12.1248 11.4688 12.2602H11.4703Z" fill="#423E3C"/>
<path d="M241.138 18.5357C241.138 17.6505 241.052 16.7638 240.852 15.902C240.668 15.1164 240.387 14.3525 239.997 13.6463C239.854 13.388 239.698 13.1298 239.537 12.8762C239.431 12.7144 239.313 12.5573 239.192 12.4002C239.118 12.3022 239.044 12.2073 238.965 12.1155C238.797 11.9164 238.623 11.7204 238.439 11.5321C238.007 11.0934 237.548 10.7216 237.068 10.4012C237.025 10.3732 236.981 10.3467 236.938 10.3203C236.491 10.0356 236.025 9.79912 235.539 9.60777C235.405 9.55644 235.271 9.52066 235.139 9.47865C234.786 9.35887 234.421 9.26397 234.046 9.18775C233.871 9.15197 233.698 9.11463 233.516 9.08196C232.964 9.00107 232.397 8.94817 231.8 8.94817L215.879 8.93262L211.827 8.9404L217.041 14.5237L224.13 14.5128L231.383 14.519C232.593 14.519 233.595 14.869 234.408 15.6951C235.223 16.5227 235.63 17.5588 235.63 18.8017C235.63 20.026 235.228 21.0559 234.424 21.8944C233.619 22.7313 232.604 23.1498 231.374 23.1498H231.259V23.1545H220.698L236.306 42.2642L243.003 42.1616L231.774 28.4235C234.144 28.3193 241.141 27.1074 241.141 18.5326L241.138 18.5357Z" fill="#423E3C"/>
<path d="M86.8085 64.0376C86.4401 64.999 85.9116 65.8157 85.2245 66.4878C84.5374 67.1598 83.7027 67.6747 82.7203 68.0357C81.7379 68.3966 80.6342 68.577 79.4093 68.577C78.0756 68.577 76.8786 68.3592 75.8185 67.9236C74.7584 67.4881 73.8568 66.8642 73.1153 66.0522C72.3738 65.2401 71.8049 64.2492 71.407 63.0793C71.009 61.911 70.8101 60.5918 70.8101 59.1248C70.8101 57.6578 71.009 56.3791 71.407 55.2139C71.8049 54.0487 72.3723 53.0609 73.1091 52.2472C73.8459 51.4352 74.7382 50.8083 75.7874 50.3696C76.8351 49.9309 78.0134 49.71 79.3223 49.71C80.3824 49.71 81.3648 49.8577 82.2679 50.1518C83.1711 50.4458 83.9654 50.8627 84.654 51.401C85.3411 51.9392 85.9054 52.591 86.3437 53.3533C86.7821 54.1156 87.0681 54.9619 87.2018 55.8906H83.4742C83.1928 54.979 82.6939 54.2727 81.9773 53.7702C81.2607 53.2693 80.3762 53.0173 79.3238 53.0173C78.6025 53.0173 77.9528 53.1558 77.373 53.4342C76.7932 53.7127 76.3019 54.1125 75.9009 54.6336C75.4998 55.1563 75.1905 55.7926 74.9744 56.5424C74.7584 57.2923 74.6511 58.1401 74.6511 59.0859C74.6511 60.0318 74.763 60.9107 74.9869 61.673C75.2107 62.4353 75.5309 63.084 75.9506 63.6191C76.3688 64.1543 76.8771 64.5619 77.4725 64.8434C78.0694 65.125 78.7362 65.2666 79.473 65.2666C80.0855 65.2666 80.6498 65.1795 81.1627 65.0052C81.6757 64.831 82.1172 64.5868 82.4856 64.271C82.854 63.9567 83.1462 63.574 83.3623 63.1275C83.5783 62.6811 83.6934 62.1864 83.7105 61.6481L83.7229 61.3245H79.8337V58.501H87.3634V60.7894C87.3634 61.9919 87.1785 63.0731 86.8101 64.0345L86.8085 64.0376Z" fill="#89BD24"/>
<path d="M93.7242 61.5376C93.7242 62.1007 93.8066 62.611 93.9729 63.0668C94.1393 63.5226 94.3802 63.9131 94.7004 64.2351C95.0191 64.5587 95.4124 64.8076 95.8803 64.9818C96.3481 65.156 96.8798 65.2431 97.4767 65.2431C98.0736 65.2431 98.6176 65.156 99.0855 64.9818C99.5534 64.8076 99.9467 64.5587 100.265 64.2351C100.584 63.9115 100.827 63.5226 100.993 63.0668C101.159 62.611 101.242 62.1007 101.242 61.5376V50.1703H104.994V61.9218C104.994 62.9174 104.818 63.8228 104.465 64.6395C104.113 65.4563 103.611 66.1563 102.956 66.7412C102.302 67.3262 101.512 67.7773 100.589 68.0962C99.6653 68.4151 98.627 68.5754 97.4751 68.5754C96.3233 68.5754 95.2958 68.4151 94.3693 68.0962C93.4413 67.7773 92.6516 67.3246 92.0019 66.7412C91.3521 66.1563 90.85 65.4563 90.4987 64.6395C90.1459 63.8228 89.9702 62.9174 89.9702 61.9218V50.1703H93.7227V61.5376H93.7242ZM94.5698 48.4809C94.2885 48.4809 94.0289 48.4327 93.7926 48.3378C93.5563 48.2429 93.3527 48.1122 93.1833 47.9457C93.0138 47.7793 92.8802 47.5817 92.7853 47.3484C92.6905 47.1166 92.6423 46.863 92.6423 46.5892C92.6423 46.3154 92.6905 46.0649 92.7853 45.8363C92.8802 45.6091 93.0123 45.41 93.1833 45.2389C93.3543 45.0678 93.5563 44.9386 93.7926 44.8469C94.0289 44.7551 94.2869 44.71 94.5698 44.71C94.8528 44.71 95.1108 44.7551 95.3471 44.8469C95.5834 44.9386 95.7854 45.0693 95.9564 45.2389C96.1259 45.4085 96.258 45.6076 96.3544 45.8363C96.4492 46.0649 96.4974 46.3154 96.4974 46.5892C96.4974 46.863 96.4492 47.115 96.3544 47.3484C96.2595 47.5802 96.1259 47.7793 95.9564 47.9457C95.787 48.1122 95.5834 48.2429 95.3471 48.3378C95.1108 48.4327 94.8512 48.4809 94.5698 48.4809ZM100.385 48.4809C100.111 48.4809 99.8565 48.4327 99.6203 48.3378C99.384 48.2429 99.1788 48.1122 99.0047 47.9457C98.8306 47.7793 98.6954 47.5817 98.6005 47.3484C98.5057 47.1166 98.4575 46.863 98.4575 46.5892C98.4575 46.3154 98.5057 46.0649 98.6005 45.8363C98.6954 45.6091 98.8306 45.41 99.0047 45.2389C99.1788 45.0693 99.384 44.9386 99.6203 44.8469C99.8565 44.7551 100.111 44.71 100.385 44.71C100.659 44.71 100.926 44.7551 101.162 44.8469C101.399 44.9386 101.604 45.0693 101.778 45.2389C101.952 45.4085 102.087 45.6076 102.182 45.8363C102.277 46.0649 102.325 46.3154 102.325 46.5892C102.325 46.863 102.277 47.115 102.182 47.3484C102.087 47.5802 101.952 47.7793 101.778 47.9457C101.604 48.1122 101.399 48.2429 101.162 48.3378C100.926 48.4327 100.668 48.4809 100.385 48.4809Z" fill="#89BD24"/>
<path d="M108.364 68.1164V50.1719H116.205C117.075 50.1719 117.852 50.2761 118.541 50.483C119.228 50.6899 119.811 50.987 120.287 51.3713C120.762 51.7571 121.128 52.2253 121.381 52.7761C121.633 53.3268 121.76 53.9506 121.76 54.6475C121.76 55.1204 121.678 55.5747 121.512 56.0087C121.345 56.4443 121.118 56.8317 120.828 57.1708C120.537 57.5115 120.193 57.7962 119.797 58.0295C119.399 58.2613 118.973 58.4107 118.518 58.4776V58.7016C119.115 58.7436 119.663 58.882 120.164 59.1185C120.664 59.3549 121.098 59.6614 121.462 60.0394C121.826 60.4175 122.11 60.8562 122.314 61.3571C122.517 61.8596 122.618 62.3994 122.618 62.9796C122.618 63.7668 122.475 64.4777 122.189 65.1124C121.903 65.7472 121.491 66.2854 120.954 66.7288C120.416 67.1721 119.763 67.5144 118.996 67.754C118.23 67.9951 117.371 68.1149 116.418 68.1149H108.366L108.364 68.1164ZM112.116 57.6079H114.938C115.958 57.6079 116.733 57.4104 117.268 57.0168C117.803 56.6232 118.07 56.0616 118.07 55.332C118.07 54.6024 117.826 54.0486 117.336 53.6472C116.847 53.2459 116.152 53.0436 115.249 53.0436H112.116V57.6079ZM115.459 65.2447C116.544 65.2447 117.371 65.0253 117.938 64.5851C118.505 64.1464 118.79 63.5023 118.79 62.6576C118.79 61.8129 118.497 61.2031 117.913 60.7799C117.329 60.3568 116.481 60.1452 115.371 60.1452H112.116V65.2447H115.459Z" fill="#89BD24"/>
<path d="M128.743 68.1164H124.99V50.1719H132.52C133.506 50.1719 134.392 50.3041 135.18 50.5701C135.966 50.8361 136.633 51.2173 137.181 51.7135C137.728 52.2113 138.147 52.8134 138.441 53.5228C138.735 54.2321 138.883 55.0333 138.883 55.9294C138.883 56.5019 138.81 57.051 138.665 57.5768C138.52 58.1026 138.309 58.588 138.031 59.0314C137.753 59.4747 137.412 59.8668 137.005 60.2059C136.598 60.545 136.139 60.8188 135.626 61.0273L139.403 68.1164H135.153L131.811 61.6122H128.741V68.1164H128.743ZM128.743 58.728H132.035C132.988 58.728 133.725 58.4884 134.247 58.0062C134.77 57.5255 135.031 56.8503 135.031 55.9792C135.031 55.556 134.961 55.1733 134.819 54.8295C134.678 54.4857 134.477 54.1933 134.216 53.9521C133.955 53.7126 133.636 53.5274 133.259 53.3983C132.881 53.2692 132.461 53.2054 131.998 53.2054H128.743V58.7265V58.728Z" fill="#89BD24"/>
<path d="M153.522 68.1164H141.643V50.1719H153.522V53.3796H145.396V57.5706H153.062V60.5435H145.396V64.9087H153.522V68.1164Z" fill="#89BD24"/>
</g>
<defs>
<clipPath id="clip0_637_65">
<rect width="243" height="68.5767" fill="white"/>
</clipPath>
</defs>
</svg>
