<svg width="208" height="59" viewBox="0 0 208 59" fill="none" xmlns="http://www.w3.org/2000/svg">
<g clip-path="url(#clip0_637_158)">
<path d="M194.227 36.1045L180.835 19.7818H186.599L199.928 36.0687L194.227 36.1045Z" fill="white"/>
<path d="M149.201 10.7892C146.729 8.1567 143.432 6.86237 139.315 6.86237C137.015 6.86237 135.02 7.21984 133.286 7.97863C131.986 8.51284 130.771 9.40586 129.688 10.566C128.559 11.7248 127.693 13.0204 127.085 14.4928C126.218 16.5008 125.785 18.9539 125.785 21.9001C125.785 26.4953 127 30.0634 129.558 32.6534C131.986 35.2859 135.282 36.5789 139.443 36.5789C143.52 36.5789 146.816 35.2859 149.244 32.6534C151.673 30.0196 152.93 26.405 152.93 21.7658C152.93 17.0802 151.673 13.4218 149.202 10.7879L149.201 10.7892ZM144.951 29.084C143.476 30.7797 141.656 31.5823 139.4 31.5823C137.101 31.5823 135.281 30.7358 133.805 29.084C132.331 27.3884 131.595 24.9352 131.595 21.6768C131.595 18.421 132.331 15.9214 133.763 14.2257C135.194 12.5753 137.059 11.7713 139.4 11.7713C141.741 11.7713 143.606 12.5739 144.994 14.1805C146.425 15.831 147.118 18.2855 147.118 21.5878C147.118 24.8887 146.382 27.4322 144.95 29.0827L144.951 29.084Z" fill="white"/>
<path d="M84.5432 36.074L86.5722 30.6335H94.7345L88.2161 14.4742L80.6566 36.074H74.8193L84.8393 7.67831L91.3724 7.68629L102.84 36.074H84.5432Z" fill="white"/>
<path d="M68.0778 36.074H61.5341L50.084 7.67831H55.9717L64.6944 29.2993L72.2366 7.67831H78.0964L68.0778 36.074Z" fill="white"/>
<path d="M105.87 36.074V7.67831H111.435V30.6441H124.771V36.074H105.87Z" fill="white"/>
<path d="M174.727 33.2833C172.65 35.3404 170.052 36.3703 166.933 36.3703C163.86 36.3703 161.275 35.355 159.173 33.3205C157.072 31.2873 156.023 28.7186 156.023 25.6143V7.63046H161.588V25.6143C161.588 27.1917 162.115 28.5113 163.173 29.5691C164.23 30.6282 165.483 31.1571 166.934 31.1571C168.384 31.1571 169.643 30.6282 170.71 29.5691C171.781 28.5099 172.314 27.1917 172.314 25.6143V7.63046H177.844V25.6143C177.844 28.6707 176.804 31.2262 174.727 33.282V33.2833Z" fill="white"/>
<path d="M9.79824 10.473L21.0346 21.0017L30.7505 11.5401V19.5599L21.0372 28.9392L10.8366 19.3287V22.215L21.0372 32.2282L37.006 17.2529V17.2237L38.2728 16.0118C38.8491 17.7433 39.1664 19.617 39.1664 21.5506C39.1664 26.4555 37.1786 30.8687 34.0077 34.0421C30.8089 37.246 26.3991 39.2354 21.5285 39.2354C16.6579 39.2354 12.2189 37.246 9.04933 34.0421C5.8492 30.8408 3.89062 26.4262 3.89062 21.5506C3.89062 18.926 4.43636 16.4436 5.47475 14.1925L3.74588 12.4623C2.33304 15.2025 1.55492 18.2908 1.55492 21.5492C1.55492 27.088 3.8043 32.0793 7.40678 35.6859C11.0385 39.3204 16.0246 41.5423 21.5298 41.5423C27.0351 41.5423 32.0491 39.3204 35.6503 35.6859C39.2527 32.0514 41.5008 27.0601 41.5008 21.5492C41.5008 18.9805 41.0108 16.5008 40.1185 14.2497L41.3282 13.0962C42.4529 15.6915 43.0584 18.5778 43.0584 21.5771C43.0584 27.5199 40.6377 32.9444 36.7471 36.8394C32.8578 40.7344 27.468 43.1583 21.5298 43.1583C15.593 43.1583 10.2032 40.7344 6.31262 36.8394C2.42068 32.9484 0 27.5531 0 21.5798C0 17.3393 1.24022 13.3872 3.34354 10.0397L7.34835 13.936C6.10946 16.2138 5.41765 18.841 5.41765 21.5811C5.41765 26.0528 7.23283 30.0621 10.1448 33.0056C13.0555 35.9185 17.0922 37.7085 21.5298 37.7085C25.9675 37.7085 30.0029 35.8906 32.9135 33.0056C35.8229 30.0913 37.6394 26.0515 37.6394 21.5811C37.6394 20.716 37.5531 19.8788 37.4375 19.0416L21.0385 34.4195L9.33615 22.8808V15.7832L21.0332 26.813L29.2513 18.9287V15.2065L21.0253 23.1705L8.81829 11.6876L8.78907 11.7168L7.66438 10.6484C8.09726 10.0995 8.55803 9.57995 9.04801 9.09092C12.2455 5.88697 16.6566 3.92686 21.5272 3.92686C26.3978 3.92686 30.8062 5.91621 34.0064 9.09092C34.9 10.0132 35.706 11.0231 36.427 12.0902L38.128 10.5035C37.3778 9.40719 36.5705 8.39857 35.6476 7.47499C32.0172 3.84048 27.0311 1.61858 21.5259 1.61858C16.0206 1.61858 11.0066 3.86972 7.40412 7.47499C6.91414 7.96535 6.42549 8.51418 5.9634 9.06168L4.8387 7.99458C5.29947 7.44575 5.79078 6.89825 6.30997 6.37866C10.1727 2.42389 15.5332 0 21.4993 0C27.4654 0 32.8259 2.42389 36.7165 6.31886C38.0431 7.61718 39.1664 9.08959 40.0893 10.7042L38.9354 11.8005L37.2065 13.4457L36.0247 14.5407C35.2187 12.8968 34.1511 11.4258 32.8843 10.1554C29.9737 7.24243 25.937 5.45242 21.4993 5.45242C17.0616 5.45242 12.997 7.24111 10.1143 10.1554C9.99875 10.271 9.88323 10.3573 9.79692 10.473H9.79824Z" fill="white"/>
<path d="M205.986 15.8337C205.986 15.0775 205.913 14.3201 205.742 13.5839C205.585 12.9128 205.345 12.2603 205.012 11.657C204.889 11.4364 204.757 11.2158 204.619 10.9992C204.528 10.861 204.427 10.7268 204.324 10.5926C204.261 10.5088 204.198 10.4278 204.13 10.3494C203.987 10.1793 203.838 10.0118 203.681 9.85103C203.312 9.47629 202.92 9.15868 202.51 8.88493C202.473 8.86101 202.436 8.83842 202.398 8.81583C202.017 8.57264 201.619 8.37065 201.203 8.2072C201.089 8.16335 200.975 8.13278 200.862 8.0969C200.561 7.99458 200.249 7.91352 199.929 7.8484C199.779 7.81784 199.631 7.78594 199.476 7.75804C199.004 7.68893 198.52 7.64375 198.01 7.64375L184.41 7.63046L180.948 7.63711L185.402 12.4065L191.458 12.3972L197.654 12.4025C198.687 12.4025 199.544 12.7015 200.238 13.4071C200.934 14.1141 201.282 14.9991 201.282 16.0609C201.282 17.1068 200.938 17.9865 200.251 18.7028C199.563 19.4177 198.696 19.7752 197.646 19.7752H197.548V19.7791H188.526L201.859 36.1032L207.58 36.0155L197.987 24.2801C200.012 24.1911 205.989 23.1558 205.989 15.831L205.986 15.8337Z" fill="white"/>
<path d="M74.1541 54.7023C73.8394 55.5236 73.3879 56.2212 72.801 56.7953C72.2141 57.3694 71.501 57.8092 70.6618 58.1175C69.8226 58.4258 68.8798 58.58 67.8335 58.58C66.6942 58.58 65.6717 58.394 64.7661 58.0219C63.8605 57.6498 63.0904 57.1169 62.457 56.4232C61.8236 55.7295 61.3376 54.883 60.9977 53.8837C60.6578 52.8857 60.4878 51.7588 60.4878 50.5057C60.4878 49.2525 60.6578 48.1602 60.9977 47.1649C61.3376 46.1695 61.8223 45.3257 62.4517 44.6307C63.0811 43.937 63.8433 43.4014 64.7396 43.0267C65.6346 42.652 66.6411 42.4633 67.7591 42.4633C68.6647 42.4633 69.5039 42.5895 70.2754 42.8407C71.0469 43.0918 71.7254 43.448 72.3137 43.9078C72.9006 44.3676 73.3826 44.9244 73.7571 45.5755C74.1315 46.2267 74.3758 46.9496 74.49 47.7429H71.3058C71.0655 46.9642 70.6392 46.3609 70.0271 45.9317C69.415 45.5038 68.6594 45.2885 67.7605 45.2885C67.1443 45.2885 66.5893 45.4067 66.094 45.6446C65.5987 45.8825 65.1791 46.224 64.8365 46.6692C64.4939 47.1157 64.2297 47.6592 64.0451 48.2997C63.8605 48.9402 63.7689 49.6645 63.7689 50.4725C63.7689 51.2804 63.8645 52.0312 64.0557 52.6824C64.247 53.3336 64.5205 53.8877 64.879 54.3448C65.2362 54.802 65.6704 55.1501 66.179 55.3907C66.6889 55.6312 67.2585 55.7521 67.8879 55.7521C68.4111 55.7521 68.8931 55.6777 69.3313 55.5289C69.7695 55.38 70.1466 55.1714 70.4613 54.9016C70.776 54.6332 71.0257 54.3063 71.2102 53.9249C71.3948 53.5435 71.4931 53.1209 71.5077 52.6611L71.5183 52.3847H68.196V49.9728H74.6281V51.9276C74.6281 52.9548 74.4701 53.8784 74.1554 54.6996L74.1541 54.7023Z" fill="white"/>
<path d="M80.0618 52.5668C80.0618 53.0478 80.1321 53.4837 80.2742 53.8731C80.4163 54.2624 80.6221 54.596 80.8956 54.8711C81.1679 55.1475 81.5038 55.3601 81.9035 55.5089C82.3032 55.6578 82.7573 55.7322 83.2672 55.7322C83.7771 55.7322 84.2418 55.6578 84.6415 55.5089C85.0412 55.3601 85.3772 55.1475 85.6494 54.8711C85.9216 54.5947 86.1287 54.2624 86.2708 53.8731C86.4129 53.4837 86.4833 53.0478 86.4833 52.5668V42.8566H89.6887V52.895C89.6887 53.7455 89.5387 54.5189 89.2372 55.2166C88.9358 55.9143 88.5069 56.5123 87.9479 57.0119C87.3889 57.5116 86.7143 57.897 85.9256 58.1694C85.1368 58.4418 84.2498 58.5787 83.2659 58.5787C82.2819 58.5787 81.4042 58.4418 80.6128 58.1694C79.8201 57.897 79.1455 57.5102 78.5905 57.0119C78.0354 56.5123 77.6065 55.9143 77.3065 55.2166C77.005 54.5189 76.855 53.7455 76.855 52.895V42.8566H80.0604V52.5668H80.0618ZM80.7841 41.4134C80.5438 41.4134 80.322 41.3722 80.1202 41.2912C79.9183 41.2101 79.7444 41.0985 79.5997 40.9563C79.4549 40.8141 79.3407 40.6453 79.2597 40.446C79.1787 40.248 79.1376 40.0314 79.1376 39.7975C79.1376 39.5636 79.1787 39.3497 79.2597 39.1543C79.3407 38.9603 79.4536 38.7902 79.5997 38.644C79.7457 38.4979 79.9183 38.3876 80.1202 38.3092C80.322 38.2308 80.5424 38.1922 80.7841 38.1922C81.0258 38.1922 81.2462 38.2308 81.448 38.3092C81.6499 38.3876 81.8225 38.4992 81.9686 38.644C82.1133 38.7889 82.2262 38.959 82.3085 39.1543C82.3895 39.3497 82.4307 39.5636 82.4307 39.7975C82.4307 40.0314 82.3895 40.2467 82.3085 40.446C82.2275 40.644 82.1133 40.8141 81.9686 40.9563C81.8238 41.0985 81.6499 41.2101 81.448 41.2912C81.2462 41.3722 81.0244 41.4134 80.7841 41.4134ZM85.7516 41.4134C85.5179 41.4134 85.3001 41.3722 85.0983 41.2912C84.8965 41.2101 84.7212 41.0985 84.5725 40.9563C84.4238 40.8141 84.3082 40.6453 84.2272 40.446C84.1462 40.248 84.1051 40.0314 84.1051 39.7975C84.1051 39.5636 84.1462 39.3497 84.2272 39.1543C84.3082 38.9603 84.4238 38.7902 84.5725 38.644C84.7212 38.4992 84.8965 38.3876 85.0983 38.3092C85.3001 38.2308 85.5179 38.1922 85.7516 38.1922C85.9853 38.1922 86.2137 38.2308 86.4155 38.3092C86.6174 38.3876 86.7927 38.4992 86.9414 38.644C87.0901 38.7889 87.2056 38.959 87.2866 39.1543C87.3676 39.3497 87.4088 39.5636 87.4088 39.7975C87.4088 40.0314 87.3676 40.2467 87.2866 40.446C87.2056 40.644 87.0901 40.8141 86.9414 40.9563C86.7927 41.0985 86.6174 41.2101 86.4155 41.2912C86.2137 41.3722 85.9933 41.4134 85.7516 41.4134Z" fill="white"/>
<path d="M92.5674 58.1866V42.8579H99.2651C100.009 42.8579 100.673 42.947 101.261 43.1237C101.848 43.3005 102.346 43.5543 102.752 43.8825C103.158 44.2121 103.47 44.6121 103.687 45.0825C103.902 45.5529 104.011 46.0858 104.011 46.6811C104.011 47.0851 103.94 47.4732 103.798 47.8439C103.656 48.216 103.462 48.5469 103.214 48.8366C102.966 49.1276 102.672 49.3708 102.334 49.5701C101.994 49.7682 101.63 49.8957 101.241 49.9529V50.1442C101.751 50.1801 102.22 50.2984 102.647 50.5004C103.075 50.7024 103.445 50.9642 103.756 51.2871C104.067 51.61 104.31 51.9847 104.484 52.4126C104.658 52.8419 104.744 53.303 104.744 53.7987C104.744 54.4711 104.622 55.0784 104.377 55.6206C104.133 56.1628 103.781 56.6226 103.322 57.0013C102.862 57.38 102.305 57.6724 101.65 57.877C100.995 58.083 100.261 58.1853 99.447 58.1853H92.5687L92.5674 58.1866ZM95.7728 49.21H98.1829C99.054 49.21 99.7166 49.0413 100.173 48.705C100.63 48.3688 100.859 47.8891 100.859 47.2659C100.859 46.6426 100.65 46.1695 100.232 45.8267C99.8135 45.4838 99.2199 45.3111 98.4485 45.3111H95.7728V49.21ZM98.6277 55.7335C99.5546 55.7335 100.261 55.5462 100.746 55.1701C101.23 54.7953 101.473 54.2452 101.473 53.5236C101.473 52.802 101.224 52.2811 100.724 51.9196C100.225 51.5582 99.5014 51.3774 98.5534 51.3774H95.7728V55.7335H98.6277Z" fill="white"/>
<path d="M109.975 58.1866H106.77V42.8579H113.202C114.044 42.8579 114.801 42.9709 115.474 43.1981C116.146 43.4254 116.716 43.751 117.183 44.1749C117.65 44.6001 118.009 45.1144 118.26 45.7204C118.511 46.3263 118.637 47.0107 118.637 47.7761C118.637 48.2652 118.575 48.7343 118.451 49.1834C118.328 49.6326 118.147 50.0472 117.909 50.426C117.672 50.8047 117.381 51.1396 117.033 51.4293C116.685 51.719 116.293 51.9528 115.855 52.1309L119.082 58.1866H115.452L112.597 52.6306H109.974V58.1866H109.975ZM109.975 50.1668H112.788C113.602 50.1668 114.231 49.9622 114.677 49.5502C115.124 49.1396 115.347 48.5629 115.347 47.8187C115.347 47.4572 115.287 47.1303 115.166 46.8366C115.045 46.5429 114.874 46.2931 114.651 46.0871C114.428 45.8825 114.156 45.7243 113.833 45.6141C113.51 45.5038 113.152 45.4493 112.756 45.4493H109.975V50.1655V50.1668Z" fill="white"/>
<path d="M131.143 58.1866H120.996V42.8579H131.143V45.5981H124.201V49.1781H130.75V51.7176H124.201V55.4465H131.143V58.1866Z" fill="white"/>
</g>
<defs>
<clipPath id="clip0_637_158">
<rect width="207.577" height="58.58" fill="white"/>
</clipPath>
</defs>
</svg>
