<?xml version="1.0" encoding="UTF-8"?>
<svg xmlns="http://www.w3.org/2000/svg" version="1.1" viewBox="0 0 487 102.2">
  <defs>
    <style>
      .cls-1 {
        isolation: isolate;
      }

      .cls-2 {
        fill-rule: evenodd;
      }
    </style>
  </defs>
  <!-- Generator: Adobe Illustrator 28.6.0, SVG Export Plug-In . SVG Version: 1.2.0 Build 709)  -->
  <g>
    <g id="Layer_1">
      <g id="Ahlatcı_Gayrimenkul_Gelişim" class="cls-1">
        <g id="Ahlatcı_Gayrimenkul_Gelişim-2">
          <path class="cls-2" d="M320.9,4.9l-7.6,22h3.9l2.1-6.3h10.3l2.1,6.3h3.9l-7.6-22h-7.1,0ZM320.4,17.4l4.1-12,4,12h-8.1ZM340.8,17.9c0-1.4.3-2.5.9-3.2.6-.7,1.4-1.1,2.4-1.1s1.9.4,2.5,1,.9,1.8.9,3.2v9.1h3.6v-9.8c0-1.2-.2-2.2-.6-3.1-.4-.9-1-1.6-1.8-2.2h0c-.8-.5-1.8-.8-2.9-.8s-2.3.3-3.1,1-1.4,1.5-1.8,2.5V5h-3.6v22h3.6v-9h0ZM358,4.9h-3.6v22h3.6V4.9ZM371.3,17.1l-4.1.4c-1.2.1-2.2.3-3.2.6-.9.3-1.7.8-2.3,1.4-.6.7-1,1.6-1,2.7s.2,1.8.7,2.6,1.1,1.4,1.9,1.8,1.7.7,2.7.7,1.8-.1,2.4-.4c.7-.3,1.2-.7,1.6-1.2.4-.5.8-1.1,1.2-1.9v3.1h3.6v-9.9c0-1.1-.2-2.1-.7-3-.5-.9-1.2-1.6-2.2-2.2h.1c-1-.6-2.3-.9-3.8-.9s-2.4.2-3.4.6c-1,.4-1.8,1-2.4,1.7s-1,1.6-1.1,2.7h3.6c.1-.7.4-1.3,1-1.7.5-.5,1.3-.7,2.2-.7s1.3.1,1.8.4c.5.3.8.7,1.1,1.2.2.5.4,1,.4,1.7v.3h0ZM371.1,20.3c0,.9-.1,1.7-.4,2.4s-.7,1.2-1.3,1.6h0c-.6.4-1.3.6-2.1.6s-1.1-.1-1.5-.4-.8-.5-1.1-1c-.3-.4-.4-.9-.4-1.5s.2-1.1.6-1.5c.4-.4.8-.6,1.4-.7s1.2-.3,2.1-.4l2.8-.3v.9h0ZM379.5,22.4h0c0,1,.2,1.9.7,2.5.4.7,1,1.2,1.8,1.5.8.3,1.6.5,2.6.5h2.2v-2.7h-1.6c-.7,0-1.2-.1-1.6-.4s-.5-.8-.5-1.5v-8.3h3.7v-2.7h-3.7v-3.7h-3.6v3.7h-3.1v2.7h3.1v8.4h0ZM391.6,26.3h0c1.2.7,2.5,1,4.1,1s2.4-.2,3.4-.7,1.9-1.1,2.6-1.9,1.2-1.9,1.4-3.1h-3.6c-.6,2.1-1.9,3.2-3.8,3.2s-1.6-.2-2.2-.7c-.6-.5-1.1-1.1-1.4-1.9s-.5-1.8-.5-3,.2-2.1.5-3c.3-.8.8-1.5,1.4-1.9.6-.5,1.4-.7,2.2-.7s1.8.3,2.4.9,1,1.4,1.2,2.3h3.7c-.2-1.2-.7-2.2-1.3-3s-1.5-1.5-2.5-2-2.2-.7-3.5-.7-2.9.4-4.1,1-2.1,1.6-2.8,2.9-1,2.7-1,4.2.3,3,1,4.2c.6,1.2,1.5,2.2,2.7,2.9h0ZM409.2,11.3h-3.6v15.6h3.6v-15.6ZM324.3,52.6h7.5c0,1.3-.3,2.5-.9,3.4s-1.3,1.7-2.2,2.2-2,.8-3.3.8-2.6-.3-3.6-1c-1-.7-1.9-1.7-2.4-2.9-.6-1.2-.9-2.7-.9-4.3s.3-3.1.8-4.3,1.3-2.2,2.3-2.9,2.2-1,3.5-1,2.8.4,3.8,1.1,1.8,1.8,2.2,3.1h3.9c-.4-1.5-1.1-2.8-2-3.9s-2-1.9-3.4-2.5c-1.4-.6-2.9-.9-4.6-.9s-3.9.5-5.5,1.4c-1.6,1-2.9,2.3-3.8,4-.9,1.7-1.4,3.7-1.4,5.9s.5,4.2,1.4,6c.9,1.7,2.1,3,3.7,4,1.5.9,3.2,1.4,5.1,1.4s2.6-.3,3.7-.8c1-.5,1.9-1.2,2.5-2.1s1.1-1.8,1.4-2.9v5.4h3.1v-12.1h-11.1v3.2h0ZM349.2,46.5h.1c-1-.6-2.3-.9-3.8-.9s-2.4.2-3.4.6c-1,.4-1.8,1-2.4,1.7s-1,1.7-1.1,2.7h3.6c.1-.7.4-1.3,1-1.7.5-.5,1.3-.7,2.2-.7s1.3.1,1.8.4c.5.3.8.7,1.1,1.2s.4,1,.4,1.7v.3l-4.1.4c-1.2.1-2.2.3-3.2.6-.9.3-1.7.8-2.3,1.4-.6.7-1,1.6-1,2.7s.2,1.8.7,2.6,1.1,1.4,1.9,1.8,1.7.7,2.7.7,1.8-.1,2.4-.4c.7-.3,1.2-.7,1.6-1.2.4-.5.8-1.1,1.2-1.8v3.1h3.6v-9.9c0-1.1-.2-2.1-.7-3-.5-.9-1.2-1.6-2.2-2.2h0ZM348.5,55c0,.9-.1,1.7-.4,2.4s-.7,1.2-1.3,1.7h0c-.6.4-1.3.6-2.1.6s-1.1-.1-1.5-.3-.8-.5-1.1-1-.4-.9-.4-1.5.2-1.1.6-1.5c.4-.3.8-.6,1.4-.7.5-.1,1.2-.3,2.1-.3l2.8-.3v.9h0ZM361.7,59.9l-2.3,7.3h3.7l6.7-21.2h-3.8l-4.2,13.4-4.7-13.4h-3.6l5,13.9h3.2,0ZM371.6,46v15.6h3.6v-8.7c0-.9.1-1.6.4-2.1.3-.5.8-.9,1.4-1.1s1.4-.3,2.3-.3h1v-3.5c-1.4,0-2.5.4-3.4,1.1s-1.4,1.8-1.7,3h0v-3.8h-3.6,0ZM386,61.6v-15.6h-3.6v15.6h3.6ZM386.1,39.6h-3.8v4h3.8v-4ZM393.2,52.6c0-1.5.3-2.5.8-3.2.5-.7,1.3-1,2.3-1s1.8.3,2.3,1,.8,1.8.8,3.2v9.1h3.6v-9c0-1.5.3-2.5.8-3.2s1.3-1,2.3-1,1.8.3,2.3,1c.5.7.8,1.8.8,3.2v9.1h3.6v-9.8c0-1.2-.2-2.3-.6-3.2s-1-1.7-1.7-2.2h0c-.8-.6-1.7-.8-2.8-.8s-2.3.4-3.1,1.1c-.8.7-1.4,1.7-1.8,2.8-.3-1.1-.9-2-1.7-2.8-.8-.7-1.9-1.1-3.1-1.1s-2.2.3-3,1-1.4,1.5-1.7,2.6v-3.2h-3.6v15.6h3.6v-9h0ZM426.8,46.7c-1.2-.7-2.5-1-4-1s-2.9.3-4,1-2,1.7-2.7,2.9c-.6,1.2-1,2.7-1,4.2s.3,3,.9,4.2,1.5,2.2,2.7,2.9,2.5,1,4.1,1,3.4-.4,4.6-1.2,2.1-2.1,2.6-3.7h-3.7c-.3.8-.7,1.4-1.3,1.8s-1.3.6-2.2.6-2-.4-2.8-1.2-1.2-1.9-1.3-3.4h11.6c0-.5,0-.9,0-1.2,0-1.6-.3-3-1-4.2s-1.5-2.1-2.7-2.8h0ZM418.8,52.4c.2-1.4.6-2.4,1.3-3.1h0c.7-.7,1.6-1,2.6-1s1.4.2,1.9.5c.6.3,1,.8,1.4,1.4.4.6.5,1.3.6,2.2h-7.9ZM444.5,46.5h0c-.8-.5-1.8-.8-2.9-.8s-2.3.3-3.1,1-1.4,1.5-1.8,2.5v-3.2h-3.6v15.6h3.6v-9c0-1.4.3-2.5.9-3.2.6-.7,1.4-1.1,2.4-1.1s1.9.3,2.5,1c.6.7.9,1.8.9,3.2v9.1h3.6v-9.8c0-1.2-.2-2.2-.6-3.2-.4-.9-1-1.7-1.8-2.2h0ZM464.6,46h-4.4l-6.4,6.5v-12.9h-3.6v22h3.6v-8.2l6.6,8.2h4.4l-7.1-8.7,6.8-6.9h0ZM476.2,55c0,1.4-.3,2.5-.8,3.2-.5.7-1.4,1-2.4,1s-1.9-.3-2.4-1c-.5-.7-.8-1.8-.8-3.2v-9.1h-3.6v9.8c0,1.2.2,2.2.6,3.2s1,1.7,1.7,2.2,1.7.8,2.9.8,2.2-.3,3.1-1,1.4-1.5,1.8-2.5v3.1h3.6v-15.6h-3.5v9.1h0ZM483.4,39.6v22h3.6v-22h-3.6ZM324.3,87.2h7.5c0,1.3-.3,2.5-.9,3.4s-1.3,1.7-2.2,2.2-2,.8-3.3.8-2.6-.3-3.6-1c-1-.7-1.9-1.7-2.4-2.9s-.9-2.7-.9-4.3.3-3.1.8-4.3,1.3-2.2,2.3-2.9,2.2-1,3.5-1,2.8.4,3.8,1.1,1.8,1.8,2.2,3.1h3.9c-.4-1.5-1.1-2.8-2-3.9s-2-1.9-3.4-2.5c-1.4-.6-2.9-.9-4.6-.9s-3.9.5-5.5,1.4c-1.6.9-2.9,2.3-3.8,4-.9,1.7-1.4,3.7-1.4,5.9s.5,4.2,1.4,5.9,2.1,3,3.7,4c1.5.9,3.2,1.4,5.1,1.4s2.6-.3,3.7-.8c1-.6,1.9-1.2,2.5-2.1.6-.9,1.1-1.8,1.4-2.9v5.4h3.1v-12.1h-11.1v3.1h0ZM349.6,81.4c-1.2-.7-2.5-1-4-1s-2.9.3-4,1c-1.2.7-2,1.7-2.7,2.9s-1,2.7-1,4.2.3,3,.9,4.2c.6,1.2,1.5,2.2,2.7,2.9s2.5,1,4.1,1,3.4-.4,4.6-1.2,2.1-2.1,2.6-3.7h-3.7c-.3.8-.7,1.4-1.3,1.8s-1.3.6-2.2.6-2-.4-2.8-1.2c-.7-.8-1.2-1.9-1.3-3.4h11.6c0-.5,0-.9,0-1.2,0-1.6-.3-3-1-4.2-.6-1.2-1.5-2.1-2.7-2.8h0ZM341.6,87.1c.2-1.4.6-2.4,1.3-3.1h0c.7-.7,1.6-1,2.6-1s1.4.2,1.9.5c.6.3,1,.8,1.4,1.4.4.6.5,1.3.6,2.2h-7.9ZM355.9,96.3h3.6v-22h-3.6v22ZM363,96.3h3.6v-15.6h-3.6v15.6ZM362.9,78.3h3.8v-4h-3.8v4ZM378.2,87.1l-2.5-.5c-.7-.1-1.2-.3-1.6-.4-.4-.1-.7-.3-.9-.6s-.3-.5-.3-.9c0-.6.3-1,.9-1.3s1.3-.5,2.1-.5,1.4.2,1.9.5,1,.8,1.2,1.3h3.6c-.2-.9-.6-1.7-1.3-2.4s-1.4-1.1-2.3-1.4c-.9-.3-2-.5-3.1-.5s-2.3.2-3.3.6c-1,.4-1.8.9-2.3,1.7-.6.7-.9,1.5-.9,2.5s.4,2.1,1.2,2.8,1.9,1.2,3.4,1.5l2.5.6c.8.1,1.3.3,1.8.5.4.2.8.4.9.7s.3.6.3,1c0,.6-.3,1.1-.9,1.4-.6.3-1.4.5-2.5.5s-1.6-.2-2.2-.6c-.6-.4-1-1-1.2-1.8h-3.6c.2,1.4.8,2.5,1.8,3.4s2.3,1.4,3.8,1.5v2.1h1c.3,0,.5,0,.7.2s.3.3.3.6,0,.5-.3.6c-.2.1-.5.2-.9.2h-1.3v1.8h1.8c.9,0,1.6-.2,2.2-.7s.8-1,.8-1.8-.2-1.2-.6-1.7-1-.7-1.7-.8v-.7c1.2,0,2.3-.3,3.2-.7.9-.4,1.6-.9,2.2-1.7h0c.5-.8.8-1.6.8-2.5s-.4-2.2-1.1-3-1.9-1.3-3.5-1.7h0ZM385.4,78.3h3.8v-4h-3.8v4ZM385.5,96.3h3.6v-15.6h-3.6v15.6ZM413.6,81.2h0c-.8-.6-1.7-.8-2.8-.8s-2.3.4-3.1,1.1-1.4,1.7-1.8,2.8c-.3-1.1-.9-2-1.7-2.8-.8-.7-1.9-1.1-3.1-1.1s-2.2.3-3,1-1.4,1.5-1.7,2.6v-3.2h-3.6v15.6h3.6v-9c0-1.5.3-2.5.8-3.2.5-.7,1.3-1,2.3-1s1.8.3,2.3,1,.8,1.8.8,3.2v9.1h3.6v-9c0-1.5.3-2.5.8-3.2s1.3-1,2.3-1,1.8.3,2.3,1,.8,1.8.8,3.2v9.1h3.6v-9.8c0-1.2-.2-2.3-.6-3.2-.4-.9-1-1.7-1.7-2.2h0Z"/>
        </g>
      </g>
      <g id="AGG" class="cls-1">
        <g id="AGG-2">
          <path class="cls-2" d="M32.2,1.4L0,94.4h16.7l8.9-26.7h43.5l8.9,26.7h16.7L62.5,1.4h-30.3ZM30.1,54.3L47.4,3.3l17.1,51H30.1ZM137.4,56.2h31.6c-.1,5.6-1.4,10.5-3.7,14.6-2.3,4-5.5,7.1-9.6,9.2s-8.7,3.2-14,3.2-10.9-1.5-15.3-4.4-7.8-7.1-10.3-12.4c-2.4-5.3-3.7-11.4-3.7-18.4s1.2-13.1,3.6-18.4c2.3-5.3,5.6-9.4,9.9-12.4s9.3-4.4,15.1-4.4,11.9,1.6,16.2,4.8,7.5,7.5,9.4,13h16.5c-1.7-6.5-4.5-12-8.3-16.5s-8.6-8-14.3-10.4C154.8,1.2,148.3,0,141,0s-16.5,2-23.4,6c-6.9,4-12.1,9.7-15.9,16.9s-5.8,15.6-5.8,25,2,18,5.9,25.2,9.1,12.9,15.6,16.8,13.7,5.9,21.6,5.9,11.1-1.1,15.6-3.4,8-5.3,10.7-8.9,4.7-7.7,6-12.1v22.9h13.4v-51.3l-47,.2v13.1h0ZM237.2,43.1v13.1h31.6c-.1,5.6-1.4,10.5-3.7,14.6s-5.5,7.1-9.6,9.2c-4,2.1-8.7,3.2-14,3.2s-10.9-1.5-15.3-4.4-7.8-7.1-10.3-12.4c-2.4-5.3-3.7-11.4-3.7-18.4s1.2-13.1,3.6-18.4c2.3-5.3,5.6-9.4,9.9-12.4s9.3-4.4,15.1-4.4,11.9,1.6,16.2,4.8,7.5,7.5,9.4,13h16.5c-1.7-6.5-4.5-12-8.3-16.5s-8.6-8-14.3-10.4C254.6,1.2,248.1,0,240.7,0s-16.5,2-23.4,6c-6.9,4-12.1,9.7-15.9,16.9s-5.8,15.6-5.8,25,2,18,5.9,25.2,9.1,12.9,15.6,16.8,13.7,5.9,21.6,5.9,11.1-1.1,15.6-3.4c4.4-2.3,8-5.3,10.7-8.9,2.7-3.7,4.7-7.7,6-12.1v22.9h13.4v-51.3l-47,.2h0Z"/>
        </g>
      </g>
    </g>
  </g>
</svg>