<svg width="256" height="42" viewBox="0 0 256 42" fill="none" xmlns="http://www.w3.org/2000/svg">
<path d="M253.399 28.96C252.199 31.28 250.499 33.08 248.299 34.36C246.079 35.64 243.539 36.28 240.659 36.28C237.799 36.28 235.259 35.64 233.059 34.36C230.839 33.08 229.139 31.28 227.939 28.96C226.739 26.64 226.119 23.96 226.119 20.94C226.119 17.94 226.719 15.3 227.939 12.98C229.139 10.68 230.859 8.87997 233.059 7.61997C235.279 6.35997 237.819 5.71997 240.699 5.71997C243.559 5.71997 246.099 6.35997 248.299 7.61997C250.519 8.87997 252.219 10.66 253.399 12.98C254.599 15.28 255.199 17.94 255.199 20.94C255.199 23.96 254.599 26.64 253.399 28.96ZM231.339 27.1C232.219 28.88 233.459 30.24 235.079 31.22C236.699 32.2 238.559 32.68 240.679 32.68C242.799 32.68 244.659 32.18 246.259 31.2C247.859 30.22 249.099 28.84 249.979 27.08C250.859 25.32 251.299 23.28 251.299 20.94C251.299 18.66 250.859 16.64 249.979 14.86C249.099 13.08 247.859 11.72 246.259 10.76C244.659 9.79997 242.799 9.31997 240.679 9.31997C238.559 9.31997 236.699 9.79997 235.099 10.76C233.499 11.72 232.239 13.08 231.359 14.84C230.459 16.6 230.019 18.64 230.019 20.94C230.019 23.28 230.459 25.32 231.339 27.1Z" fill="black"/>
<path d="M221.539 6.59985L213.379 18.9599H213.299L205.059 6.59985H200.559L211.359 22.7999V35.5199H215.279V22.7999L226.099 6.59985H221.539Z" fill="black"/>
<path d="M183.959 22.88H197.319V23.7C197.319 25.46 196.899 27.02 196.039 28.4C195.179 29.78 193.999 30.84 192.479 31.58C190.959 32.32 189.199 32.7 187.219 32.7C185.139 32.7 183.299 32.22 181.719 31.26C180.139 30.3 178.919 28.92 178.059 27.14C177.199 25.36 176.759 23.3 176.759 20.96C176.759 18.66 177.199 16.62 178.059 14.86C178.919 13.1 180.139 11.74 181.719 10.78C183.299 9.82001 185.139 9.34001 187.219 9.34001C189.519 9.34001 191.499 9.92001 193.119 11.1C194.519 12.1 195.419 13.38 195.839 14.96H199.579C199.079 13.3 198.339 11.82 197.279 10.5C196.059 9.00001 194.579 7.82001 192.839 7.00001C191.099 6.18001 189.239 5.76001 187.239 5.76001C184.419 5.76001 181.899 6.40001 179.719 7.66001C177.539 8.92001 175.839 10.7 174.659 13C173.459 15.3 172.859 17.96 172.859 20.98C172.859 24 173.459 26.68 174.659 29.02C175.859 31.36 177.539 33.16 179.679 34.42C181.839 35.68 184.319 36.32 187.119 36.32C189.339 36.32 191.399 35.84 193.259 34.9C195.119 33.96 196.459 32.7 197.259 31.18H197.339V35.58H200.599V19.64H183.999V22.88H183.959Z" fill="black"/>
<path d="M74.1785 27.4399H61.2585L58.2985 35.5399H54.4785L65.4185 6.59985H69.9985L80.9385 35.5399H77.1385L74.1785 27.4399ZM73.0785 24.1799L67.7385 10.0799H67.6985L62.3985 24.1799H73.0785Z" fill="black"/>
<path d="M96.2991 15.2798V18.5998H93.3991C91.4791 18.5998 90.0391 19.1598 89.0591 20.2598C88.0791 21.3598 87.5991 22.9198 87.5991 24.9198V35.5398H84.1191V15.2798H87.5991V18.1998H87.6791C88.1191 17.2998 88.7391 16.5998 89.5791 16.0798C90.4191 15.5598 91.2991 15.2998 92.2591 15.2998H96.2991V15.2798Z" fill="black"/>
<path d="M102.959 6.59985V11.4599H99.4785V6.59985H102.959ZM99.4785 35.5399V15.2799H102.959V35.5399H99.4785Z" fill="black"/>
<path d="M110.918 31.8C111.898 32.58 113.238 32.98 114.918 32.98C116.518 32.98 117.798 32.72 118.798 32.2C119.778 31.68 120.278 30.98 120.278 30.12C120.278 29.28 120.038 28.64 119.558 28.18C119.078 27.72 118.458 27.4 117.698 27.2C116.938 27.02 115.918 26.8 114.618 26.6C112.938 26.36 111.578 26.08 110.538 25.76C109.498 25.46 108.618 24.88 107.878 24.06C107.158 23.24 106.798 22.06 106.818 20.52C106.818 18.62 107.578 17.1 109.118 15.94C110.638 14.78 112.618 14.2 115.018 14.2C116.638 14.2 118.058 14.5 119.298 15.12C120.518 15.72 121.478 16.58 122.158 17.68C122.838 18.78 123.178 20.04 123.178 21.48H119.858C119.858 20.3 119.418 19.34 118.558 18.6C117.698 17.88 116.578 17.5 115.198 17.5C113.758 17.5 112.618 17.76 111.758 18.3C110.898 18.82 110.458 19.48 110.458 20.26C110.458 21.02 110.698 21.6 111.178 22.02C111.658 22.44 112.258 22.76 112.958 22.96C113.658 23.16 114.638 23.36 115.918 23.54C117.618 23.84 118.998 24.14 120.078 24.48C121.138 24.8 122.058 25.4 122.818 26.28C123.578 27.16 123.958 28.38 123.958 29.94C123.958 31.22 123.578 32.32 122.818 33.28C122.058 34.24 121.018 34.98 119.698 35.5C118.378 36.02 116.838 36.28 115.078 36.28C113.298 36.28 111.738 35.96 110.398 35.32C109.058 34.68 108.018 33.8 107.278 32.64C106.538 31.5 106.158 30.16 106.158 28.64H109.478C109.438 29.98 109.938 31.02 110.918 31.8Z" fill="black"/>
<path d="M131.379 31.8C132.359 32.58 133.699 32.98 135.379 32.98C136.979 32.98 138.259 32.72 139.259 32.2C140.239 31.68 140.739 30.98 140.739 30.12C140.739 29.28 140.499 28.64 140.019 28.18C139.539 27.72 138.919 27.4 138.159 27.2C137.399 27.02 136.379 26.8 135.079 26.6C133.399 26.36 132.039 26.08 130.999 25.76C129.959 25.46 129.079 24.88 128.339 24.06C127.619 23.24 127.259 22.06 127.279 20.52C127.279 18.62 128.039 17.1 129.579 15.94C131.099 14.78 133.079 14.2 135.479 14.2C137.099 14.2 138.519 14.5 139.759 15.12C140.979 15.72 141.939 16.58 142.619 17.68C143.299 18.78 143.639 20.04 143.639 21.48H140.319C140.319 20.3 139.879 19.34 139.019 18.6C138.159 17.88 137.039 17.5 135.659 17.5C134.219 17.5 133.079 17.76 132.219 18.3C131.359 18.82 130.919 19.48 130.919 20.26C130.919 21.02 131.159 21.6 131.639 22.02C132.119 22.44 132.719 22.76 133.419 22.96C134.119 23.16 135.099 23.36 136.379 23.54C138.079 23.84 139.459 24.14 140.539 24.48C141.599 24.8 142.519 25.4 143.279 26.28C144.039 27.16 144.419 28.38 144.419 29.94C144.419 31.22 144.039 32.32 143.279 33.28C142.519 34.24 141.479 34.98 140.159 35.5C138.839 36.02 137.299 36.28 135.539 36.28C133.759 36.28 132.199 35.96 130.859 35.32C129.519 34.68 128.479 33.8 127.739 32.64C126.999 31.5 126.619 30.16 126.619 28.64H129.939C129.899 29.98 130.399 31.02 131.379 31.8Z" fill="black"/>
<path d="M160.819 14.9598C162.019 15.4798 162.959 16.2398 163.639 17.1798C164.319 18.1398 164.659 19.2398 164.659 20.4798V31.7998C164.659 32.0398 164.699 32.2398 164.779 32.3798C164.859 32.5198 164.999 32.5998 165.179 32.5998H165.219H165.899V35.5198C164.719 35.5198 163.779 35.4398 163.119 35.2798C162.459 35.1198 161.979 34.8398 161.679 34.4198C161.379 34.0198 161.239 33.3998 161.239 32.5998V31.8798H161.159C160.699 33.1798 159.819 34.2398 158.539 35.0398C157.259 35.8598 155.779 36.2598 154.099 36.2598C152.019 36.2598 150.339 35.6998 149.059 34.5598C147.779 33.4198 147.139 31.9398 147.139 30.0998C147.139 28.0398 147.779 26.5398 149.039 25.5798C150.319 24.6198 152.399 23.9598 155.279 23.5798L161.279 22.8598V20.4998C161.279 19.6398 160.839 18.9198 159.959 18.3598C159.079 17.7998 157.919 17.4998 156.499 17.4998C155.099 17.4998 153.919 17.8198 152.959 18.4398C151.999 19.0598 151.439 19.8798 151.279 20.8798H147.719C148.039 18.8798 149.019 17.2598 150.639 16.0398C152.259 14.8198 154.259 14.1998 156.639 14.1998C158.219 14.1798 159.619 14.4398 160.819 14.9598ZM151.659 27.6998C151.079 28.2598 150.779 28.9998 150.779 29.8998C150.779 30.8998 151.159 31.6798 151.939 32.2598C152.719 32.8198 153.719 33.0798 154.999 32.9798C156.239 32.9598 157.339 32.6998 158.279 32.1998C159.219 31.6998 159.959 31.0598 160.459 30.2198C160.979 29.3798 161.239 28.4198 161.239 27.3398V25.6798L155.119 26.4798C153.379 26.7398 152.239 27.1398 151.659 27.6998Z" fill="black"/>
<path d="M40.9193 14.2199V0.639893H27.3393L13.7793 14.2199H27.3393V27.7799L40.9193 14.2199Z" fill="#005DFF"/>
<path d="M40.9198 27.7798H27.3398V41.3598H40.9198V27.7798Z" fill="#005DFF"/>
<path d="M13.7792 27.7798L0.199219 41.3598H13.7792L27.3392 27.7798H13.7792Z" fill="#005DFF"/>
</svg>
