<?xml version="1.0" encoding="UTF-8"?>
<svg xmlns="http://www.w3.org/2000/svg" viewBox="0 0 486.97 102.19">
  <g id="Ahlatcı_Gayrimenkul_Gelişim" style="isolation: isolate;">
    <g id="Ahlatcı_Gayrimenkul_Gelişim-2" data-name="Ahlatcı_Gayrimenkul_Gelişim">
      <path d="M320.93,4.93l-7.6,21.96h3.93l2.11-6.3h10.26l2.11,6.3h3.93l-7.6-21.96h-7.14ZM320.44,17.42l4.07-12.02,4.05,12.02h-8.12ZM340.82,17.88c0-1.44.29-2.51.87-3.24.58-.72,1.39-1.07,2.43-1.07s1.88.35,2.46,1.04c.58.69.87,1.76.87,3.21v9.1h3.61v-9.8c0-1.18-.2-2.23-.61-3.15-.4-.92-1.01-1.65-1.79-2.17l-.03-.03c-.78-.52-1.76-.78-2.92-.78-1.24,0-2.28.32-3.09.98-.81.66-1.42,1.5-1.82,2.54V4.96h-3.58v21.96h3.61v-9.04ZM357.99,4.93h-3.61v21.96h3.61V4.93ZM371.29,17.07l-4.13.43c-1.18.12-2.25.32-3.18.61-.92.29-1.7.75-2.34,1.42-.64.66-.95,1.56-.95,2.69,0,.95.23,1.82.69,2.6.46.78,1.1,1.39,1.91,1.82.81.43,1.7.66,2.69.66s1.76-.14,2.43-.43c.66-.29,1.21-.66,1.65-1.16.43-.49.84-1.1,1.18-1.85v3.09h3.58v-9.94c0-1.1-.23-2.11-.72-3.01-.49-.9-1.24-1.62-2.25-2.17l.12-.06c-1.01-.55-2.28-.81-3.81-.81-1.24,0-2.37.2-3.35.61-.98.4-1.79.98-2.4,1.73s-.98,1.65-1.1,2.66h3.64c.12-.69.43-1.27.98-1.73.55-.46,1.27-.69,2.2-.69.69,0,1.27.14,1.76.43.49.29.84.69,1.07,1.18.23.49.35,1.04.35,1.65v.26ZM371.14,20.34c0,.9-.14,1.7-.43,2.4s-.72,1.24-1.3,1.65l.03.03c-.58.4-1.3.61-2.14.61-.55,0-1.07-.12-1.53-.35-.46-.23-.84-.55-1.1-.95-.26-.4-.4-.9-.4-1.47,0-.64.2-1.13.58-1.47.38-.35.84-.58,1.39-.72s1.24-.26,2.11-.35l2.8-.29v.92ZM379.47,22.39v.06c0,.98.23,1.82.66,2.49.43.66,1.04,1.16,1.82,1.47.78.32,1.65.49,2.63.49h2.25v-2.69h-1.65c-.72,0-1.24-.14-1.59-.43-.35-.29-.52-.78-.52-1.5v-8.29h3.7v-2.66h-3.7v-3.7h-3.61v3.7h-3.06v2.66h3.06v8.41ZM391.64,26.26l.03-.03c1.18.69,2.54,1.04,4.1,1.04,1.24,0,2.4-.23,3.44-.66,1.04-.43,1.91-1.07,2.6-1.94.69-.87,1.16-1.91,1.42-3.12h-3.64c-.61,2.11-1.88,3.18-3.84,3.18-.87,0-1.62-.23-2.23-.69-.61-.46-1.07-1.1-1.39-1.94-.32-.84-.49-1.82-.49-2.98s.17-2.11.49-2.95c.32-.84.78-1.47,1.39-1.94.61-.46,1.36-.69,2.23-.69.98,0,1.79.29,2.43.9s1.04,1.39,1.24,2.34h3.67c-.23-1.16-.66-2.17-1.3-3.03s-1.47-1.53-2.51-2.02c-1.04-.49-2.23-.72-3.53-.72-1.53,0-2.89.35-4.07,1.01-1.18.66-2.11,1.62-2.75,2.86-.64,1.24-.95,2.66-.95,4.25s.32,3.01.95,4.25c.64,1.24,1.53,2.2,2.72,2.89ZM409.18,11.32h-3.61v15.58h3.61v-15.58ZM324.34,52.57h7.46c-.03,1.33-.32,2.49-.87,3.44s-1.3,1.68-2.25,2.17-2.05.75-3.29.75c-1.36,0-2.57-.35-3.61-1.04-1.04-.69-1.85-1.68-2.43-2.92-.58-1.24-.87-2.69-.87-4.33s.29-3.09.84-4.33c.55-1.24,1.33-2.23,2.34-2.92s2.2-1.04,3.55-1.04c1.53,0,2.8.38,3.81,1.13,1.01.75,1.76,1.76,2.23,3.06h3.9c-.4-1.53-1.07-2.83-1.97-3.9s-2.02-1.88-3.38-2.46c-1.36-.58-2.89-.87-4.62-.87-2.05,0-3.9.46-5.52,1.42-1.62.95-2.86,2.28-3.76,3.99-.9,1.7-1.36,3.67-1.36,5.9s.46,4.25,1.39,5.95c.92,1.71,2.14,3.03,3.67,3.96,1.53.92,3.24,1.39,5.09,1.39,1.42,0,2.63-.26,3.67-.81,1.04-.55,1.88-1.24,2.51-2.11s1.1-1.82,1.42-2.86v5.4h3.15v-12.11l-11.1.06v3.09ZM349.17,46.53l.12-.06c-1.01-.55-2.28-.81-3.81-.81-1.24,0-2.37.2-3.35.61-.98.4-1.79.98-2.4,1.73-.61.75-.98,1.65-1.1,2.66h3.64c.12-.69.43-1.27.98-1.73.55-.46,1.27-.69,2.2-.69.69,0,1.27.14,1.76.43.49.29.84.69,1.07,1.18.23.49.35,1.04.35,1.65v.26l-4.13.43c-1.18.12-2.25.32-3.18.61-.92.29-1.7.75-2.34,1.42-.64.66-.95,1.56-.95,2.69,0,.95.23,1.82.69,2.6.46.78,1.1,1.39,1.91,1.82s1.7.66,2.69.66,1.76-.14,2.43-.43c.66-.29,1.21-.66,1.65-1.16.43-.49.84-1.1,1.18-1.85v3.09h3.58v-9.94c0-1.1-.23-2.11-.72-3.01-.49-.9-1.24-1.62-2.25-2.17ZM348.48,55.02c0,.9-.14,1.7-.43,2.4s-.72,1.24-1.3,1.65l.03.03c-.58.4-1.3.61-2.14.61-.55,0-1.07-.12-1.53-.35-.46-.23-.84-.55-1.1-.95-.26-.4-.4-.9-.4-1.47,0-.64.2-1.13.58-1.47.38-.35.84-.58,1.39-.72.55-.14,1.24-.26,2.11-.35l2.8-.29v.92ZM361.66,59.91l-2.28,7.34h3.73l6.68-21.24h-3.79l-4.16,13.38-4.74-13.38h-3.64l5,13.9h3.21ZM371.58,46.01v15.58h3.61v-8.73c0-.9.14-1.62.43-2.14.29-.52.75-.9,1.36-1.13.61-.23,1.39-.35,2.34-.35h.98v-3.55c-1.42,0-2.54.38-3.38,1.13-.84.75-1.42,1.76-1.73,3.01l-.03-.03v-3.79h-3.58ZM386,61.58v-15.58h-3.61v15.58h3.61ZM386.09,39.62h-3.79v3.99h3.79v-3.99ZM393.17,52.57c0-1.47.26-2.54.78-3.24.52-.69,1.3-1.04,2.34-1.04s1.76.35,2.28,1.04.78,1.76.78,3.21v9.1h3.61v-9.04c0-1.47.26-2.54.78-3.24s1.3-1.04,2.34-1.04,1.76.35,2.28,1.04c.52.69.78,1.76.78,3.21v9.1h3.61v-9.8c0-1.21-.2-2.28-.58-3.21s-.95-1.65-1.7-2.17l-.06-.06c-.75-.52-1.7-.78-2.83-.78-1.27,0-2.31.38-3.12,1.1-.81.72-1.42,1.65-1.79,2.75-.32-1.1-.9-2.02-1.7-2.75-.81-.72-1.85-1.1-3.09-1.1s-2.23.32-3.01.98c-.78.66-1.36,1.53-1.73,2.6v-3.21h-3.58v15.58h3.61v-9.04ZM426.81,46.67c-1.16-.66-2.49-.98-4.02-.98s-2.89.35-4.05,1.04-2.05,1.65-2.69,2.89c-.64,1.24-.95,2.66-.95,4.25s.32,3.01.92,4.25,1.5,2.2,2.66,2.89,2.51,1.04,4.07,1.04c1.85,0,3.41-.4,4.65-1.24s2.11-2.08,2.6-3.73h-3.67c-.29.78-.72,1.39-1.27,1.79-.55.4-1.3.61-2.25.61-1.13,0-2.05-.38-2.77-1.16-.72-.78-1.16-1.91-1.3-3.38l11.62-.09c.06-.4.09-.78.09-1.16,0-1.59-.32-3.01-.95-4.22s-1.53-2.14-2.69-2.8ZM418.78,52.42c.2-1.36.64-2.4,1.33-3.09h-.03c.69-.69,1.56-1.04,2.63-1.04.72,0,1.36.17,1.94.52.58.35,1.04.84,1.39,1.44.35.61.55,1.33.61,2.17h-7.86ZM444.53,46.5l-.03-.03c-.78-.52-1.76-.78-2.92-.78-1.24,0-2.28.32-3.09.98-.81.66-1.42,1.5-1.82,2.54v-3.18h-3.58v15.58h3.61v-9.04c0-1.44.29-2.51.87-3.24.58-.72,1.39-1.07,2.43-1.07s1.88.35,2.46,1.04c.58.69.87,1.76.87,3.21v9.1h3.61v-9.8c0-1.18-.2-2.23-.61-3.15-.4-.92-1.01-1.65-1.79-2.17ZM464.62,46.01h-4.36l-6.39,6.5v-12.89h-3.61v21.96h3.61v-8.18l6.65,8.18h4.39l-7.08-8.67,6.79-6.91ZM476.18,55.05c0,1.44-.29,2.51-.84,3.21-.55.69-1.36,1.04-2.4,1.04s-1.85-.35-2.4-1.04c-.55-.69-.84-1.76-.84-3.18v-9.1h-3.61v9.77c0,1.18.2,2.25.58,3.18s.95,1.65,1.73,2.17c.78.52,1.73.78,2.89.78,1.24,0,2.25-.32,3.06-.95s1.39-1.47,1.76-2.49v3.09h3.58v-15.58l-3.53.06v9.04ZM483.35,39.62v21.96h3.61v-21.96h-3.61ZM324.34,87.25h7.46c-.03,1.33-.32,2.49-.87,3.44s-1.3,1.68-2.25,2.17c-.95.49-2.05.75-3.29.75-1.36,0-2.57-.35-3.61-1.04-1.04-.69-1.85-1.68-2.43-2.92-.58-1.24-.87-2.69-.87-4.33s.29-3.09.84-4.33,1.33-2.23,2.34-2.92,2.2-1.04,3.55-1.04c1.53,0,2.8.38,3.81,1.13s1.76,1.76,2.23,3.06h3.9c-.4-1.53-1.07-2.83-1.97-3.9s-2.02-1.88-3.38-2.46c-1.36-.58-2.89-.87-4.62-.87-2.05,0-3.9.46-5.52,1.42-1.62.95-2.86,2.28-3.76,3.99-.9,1.7-1.36,3.67-1.36,5.9s.46,4.25,1.39,5.95,2.14,3.03,3.67,3.96c1.53.92,3.24,1.39,5.09,1.39,1.42,0,2.63-.26,3.67-.81,1.04-.55,1.88-1.24,2.51-2.11.64-.87,1.1-1.82,1.42-2.86v5.4h3.15v-12.11l-11.1.06v3.09ZM349.61,81.36c-1.16-.66-2.49-.98-4.02-.98s-2.89.35-4.05,1.04c-1.16.69-2.05,1.65-2.69,2.89s-.95,2.66-.95,4.25.32,3.01.92,4.25c.61,1.24,1.5,2.2,2.66,2.89,1.16.69,2.51,1.04,4.07,1.04,1.85,0,3.41-.4,4.65-1.24,1.24-.84,2.11-2.08,2.6-3.73h-3.67c-.29.78-.72,1.39-1.27,1.79-.55.4-1.3.61-2.25.61-1.13,0-2.05-.38-2.77-1.16-.72-.78-1.16-1.91-1.3-3.38l11.62-.09c.06-.4.09-.78.09-1.16,0-1.59-.32-3.01-.95-4.22-.64-1.21-1.53-2.14-2.69-2.8ZM341.57,87.11c.2-1.36.64-2.4,1.33-3.09h-.03c.69-.69,1.56-1.04,2.63-1.04.72,0,1.36.17,1.94.52.58.35,1.04.84,1.39,1.44.35.61.55,1.33.61,2.17h-7.86ZM355.85,96.27h3.61v-21.96h-3.61v21.96ZM363.02,96.27h3.61v-15.58h-3.61v15.58ZM362.93,78.29h3.79v-3.99h-3.79v3.99ZM378.25,87.14l-2.46-.52c-.69-.14-1.24-.29-1.65-.43-.4-.14-.69-.32-.9-.55s-.32-.52-.32-.87c0-.55.29-.98.87-1.33.58-.35,1.27-.52,2.11-.52.72,0,1.36.17,1.94.49s.95.75,1.16,1.3h3.64c-.2-.95-.64-1.73-1.27-2.37s-1.42-1.13-2.34-1.44c-.92-.32-1.97-.49-3.09-.49-1.18,0-2.28.2-3.27.58-.98.38-1.76.92-2.34,1.65-.58.72-.87,1.53-.87,2.46,0,1.13.38,2.05,1.16,2.75s1.91,1.21,3.38,1.53l2.46.55c.75.14,1.33.32,1.76.52.43.2.75.43.92.69.17.26.26.61.26,1.01,0,.61-.29,1.1-.87,1.44-.58.35-1.42.52-2.49.52-.84,0-1.56-.17-2.17-.55-.61-.38-1.01-.98-1.18-1.85h-3.64c.2,1.42.81,2.54,1.82,3.38s2.28,1.36,3.81,1.53v2.08h.95c.29,0,.52.09.72.23s.29.35.29.61c0,.29-.09.49-.29.64-.2.14-.49.2-.87.2h-1.27v1.82h1.79c.9,0,1.62-.23,2.17-.69s.81-1.04.81-1.76c0-.66-.2-1.21-.64-1.65s-.98-.69-1.68-.78v-.66c1.21-.09,2.28-.32,3.21-.72.92-.4,1.65-.95,2.17-1.65l.09-.06c.52-.69.78-1.5.78-2.46,0-1.24-.38-2.23-1.13-2.98-.75-.75-1.94-1.3-3.55-1.65ZM385.42,78.29h3.79v-3.99h-3.79v3.99ZM385.51,96.27h3.61v-15.58h-3.61v15.58ZM413.6,81.18l-.06-.06c-.75-.52-1.7-.78-2.83-.78-1.27,0-2.31.38-3.12,1.1-.81.72-1.42,1.65-1.79,2.75-.32-1.1-.9-2.02-1.7-2.75-.81-.72-1.85-1.1-3.09-1.1s-2.23.32-3.01.98c-.78.66-1.36,1.53-1.73,2.6v-3.21h-3.58v15.58h3.61v-9.04c0-1.47.26-2.54.78-3.24.52-.69,1.3-1.04,2.34-1.04s1.76.35,2.28,1.04c.52.69.78,1.76.78,3.21v9.1h3.61v-9.04c0-1.47.26-2.54.78-3.24s1.3-1.04,2.34-1.04,1.76.35,2.28,1.04c.52.69.78,1.76.78,3.21v9.1h3.61v-9.8c0-1.21-.2-2.28-.58-3.21-.38-.92-.95-1.65-1.7-2.17Z" style="fill: #fff; fill-rule: evenodd;"/>
    </g>
  </g>
  <g id="AGG" style="isolation: isolate;">
    <g id="AGG-2" data-name="AGG">
      <path d="M32.22,1.35L0,94.45h16.66l8.94-26.71h43.49l8.94,26.71h16.66L62.48,1.35h-30.26ZM30.14,54.27L47.41,3.31l17.15,50.96H30.14ZM137.45,56.23h31.61c-.12,5.64-1.35,10.54-3.68,14.58-2.33,4.04-5.51,7.11-9.56,9.19s-8.7,3.19-13.97,3.19c-5.76,0-10.9-1.47-15.31-4.41s-7.84-7.11-10.29-12.37c-2.45-5.27-3.68-11.39-3.68-18.38s1.23-13.11,3.55-18.38c2.33-5.27,5.64-9.43,9.92-12.37s9.31-4.41,15.07-4.41c6.49,0,11.88,1.59,16.17,4.78,4.29,3.19,7.47,7.47,9.43,12.99h16.54c-1.72-6.49-4.53-12.01-8.33-16.54s-8.58-7.96-14.33-10.41c-5.76-2.45-12.25-3.68-19.6-3.68-8.7,0-16.54,1.96-23.4,6-6.86,4.04-12.13,9.68-15.93,16.91-3.8,7.23-5.76,15.56-5.76,24.99s1.96,18.01,5.88,25.24,9.07,12.86,15.56,16.78c6.49,3.92,13.72,5.88,21.56,5.88,6,0,11.15-1.1,15.56-3.43s7.96-5.27,10.66-8.94,4.66-7.72,6-12.13v22.91h13.35v-51.33l-47.04.25v13.11ZM237.17,43.12v13.11h31.61c-.12,5.64-1.35,10.54-3.68,14.58-2.33,4.04-5.51,7.11-9.56,9.19-4.04,2.08-8.7,3.19-13.97,3.19-5.76,0-10.9-1.47-15.31-4.41s-7.84-7.11-10.29-12.37c-2.45-5.27-3.68-11.39-3.68-18.38s1.23-13.11,3.55-18.38c2.33-5.27,5.64-9.43,9.92-12.37s9.31-4.41,15.07-4.41c6.49,0,11.88,1.59,16.17,4.78,4.29,3.19,7.47,7.47,9.43,12.99h16.54c-1.72-6.49-4.53-12.01-8.33-16.54s-8.58-7.96-14.33-10.41c-5.76-2.45-12.25-3.68-19.6-3.68-8.7,0-16.54,1.96-23.4,6-6.86,4.04-12.13,9.68-15.93,16.91s-5.76,15.56-5.76,24.99,1.96,18.01,5.88,25.24,9.07,12.86,15.56,16.78c6.49,3.92,13.72,5.88,21.56,5.88,6,0,11.15-1.1,15.56-3.43s7.96-5.27,10.66-8.94c2.7-3.68,4.66-7.72,6-12.13v22.91h13.35v-51.33l-47.04.25Z" style="fill: #fff; fill-rule: evenodd;"/>
    </g>
  </g>
</svg>