<svg width="1190" height="817" viewBox="0 0 1190 817" fill="none" xmlns="http://www.w3.org/2000/svg">
<path d="M341.948 785.258V741.744H295.043V785.258H273.25V681.128H295.043V723.126H341.948V681.128H363.741V785.258H341.948ZM434.531 678.458C442.228 678.458 449.156 679.733 455.314 682.283C461.472 684.833 466.715 688.465 471.045 693.179C475.375 697.894 478.694 703.643 481.003 710.426C483.361 717.161 484.539 724.738 484.539 733.157C484.539 741.624 483.385 749.249 481.075 756.032C478.766 762.767 475.447 768.492 471.117 773.207C466.787 777.921 461.52 781.553 455.314 784.103C449.156 786.653 442.228 787.928 434.531 787.928C426.786 787.928 419.81 786.653 413.604 784.103C407.447 781.553 402.203 777.921 397.873 773.207C393.543 768.492 390.2 762.767 387.843 756.032C385.533 749.249 384.379 741.624 384.379 733.157C384.379 724.738 385.557 717.161 387.915 710.426C390.272 703.643 393.616 697.894 397.945 693.179C402.323 688.417 407.591 684.784 413.749 682.283C419.955 679.733 426.882 678.458 434.531 678.458ZM434.531 697.581C430.298 697.581 426.473 698.423 423.057 700.107C419.642 701.742 416.707 704.1 414.254 707.179C411.848 710.258 409.972 714.01 408.625 718.436C407.326 722.814 406.677 727.721 406.677 733.157C406.677 738.593 407.326 743.5 408.625 747.878C409.924 752.256 411.776 756.008 414.182 759.135C416.587 762.214 419.498 764.595 422.913 766.279C426.377 767.963 430.25 768.805 434.531 768.805C438.765 768.805 442.589 767.963 446.005 766.279C449.421 764.595 452.331 762.214 454.736 759.135C457.19 756.008 459.066 752.256 460.365 747.878C461.664 743.5 462.313 738.593 462.313 733.157C462.313 727.721 461.664 722.814 460.365 718.436C459.066 714.01 457.19 710.258 454.736 707.179C452.331 704.1 449.421 701.742 446.005 700.107C442.589 698.423 438.765 697.581 434.531 697.581ZM573.298 785.258H505.177V681.128H526.97V766.279H573.298V785.258ZM634.058 681.056C641.804 681.056 648.707 682.211 654.769 684.52C660.83 686.781 665.93 690.124 670.067 694.55C674.252 698.928 677.427 704.316 679.592 710.715C681.805 717.065 682.912 724.305 682.912 732.435C682.912 740.902 681.829 748.431 679.664 755.022C677.5 761.564 674.324 767.073 670.139 771.547C666.002 776.021 660.902 779.437 654.841 781.794C648.779 784.103 641.852 785.258 634.058 785.258H593.07V681.056H634.058ZM614.863 766.64H630.594C640.264 766.64 647.697 763.777 652.892 758.053C658.088 752.28 660.686 743.861 660.686 732.796C660.686 727.552 659.988 722.886 658.593 718.797C657.246 714.659 655.274 711.172 652.676 708.333C650.126 705.495 646.975 703.354 643.223 701.911C639.518 700.42 635.309 699.674 630.594 699.674H614.863V766.64ZM703.478 785.258V681.128H725.271V785.258H703.478ZM750.527 785.258V681.128H768.712L816.627 746.002H817.926V681.128H838.781V785.258H820.74L772.681 720.096H771.382V785.258H750.527ZM955.611 742.754C955.611 749.73 954.528 756.008 952.363 761.589C950.247 767.169 947.192 771.908 943.199 775.804C939.206 779.701 934.347 782.708 928.622 784.825C922.945 786.893 916.547 787.928 909.427 787.928C901.682 787.928 894.73 786.677 888.572 784.175C882.415 781.625 877.171 777.993 872.841 773.279C868.56 768.564 865.264 762.815 862.955 756.032C860.646 749.249 859.491 741.6 859.491 733.085C859.491 724.714 860.646 717.161 862.955 710.426C865.264 703.643 868.56 697.894 872.841 693.179C877.123 688.465 882.294 684.833 888.356 682.283C894.466 679.733 901.321 678.458 908.922 678.458C915.08 678.458 920.781 679.324 926.024 681.056C931.268 682.74 935.886 685.145 939.879 688.272C943.872 691.399 947.144 695.176 949.693 699.602C952.243 704.028 953.903 708.935 954.673 714.323H933.024C931.388 709.031 928.478 704.942 924.292 702.055C920.155 699.121 915.032 697.653 908.922 697.653C904.737 697.653 900.96 698.471 897.593 700.107C894.225 701.694 891.363 704.004 889.005 707.034C886.696 710.065 884.916 713.769 883.665 718.147C882.415 722.477 881.789 727.384 881.789 732.868C881.789 738.449 882.439 743.452 883.738 747.878C885.036 752.304 886.889 756.08 889.294 759.207C891.748 762.286 894.706 764.643 898.17 766.279C901.634 767.915 905.506 768.733 909.788 768.733C913.348 768.733 916.619 768.227 919.602 767.217C922.585 766.207 925.134 764.788 927.251 762.96C929.416 761.132 931.124 758.919 932.375 756.321C933.625 753.723 934.299 750.861 934.395 747.734L934.467 745.857H911.881V729.477H955.611V742.754Z" fill="#BB9F4D"/>
<path d="M503.91 86.5001L595.9 172.64L675.45 95.2301V160.84L595.92 237.57L512.4 158.95V182.56L595.91 264.48L726.65 141.97V141.73L737.03 131.81C741.75 145.98 744.35 161.31 744.35 177.13C744.35 217.25 728.07 253.37 702.11 279.32C675.92 305.53 639.82 321.81 599.94 321.81C560.06 321.81 523.72 305.53 497.77 279.32C471.57 253.13 455.53 217.01 455.53 177.13C455.53 155.66 460 135.35 468.5 116.94L454.35 102.79C442.78 125.21 436.41 150.47 436.41 177.14C436.41 222.46 454.83 263.29 484.32 292.79C514.06 322.53 554.88 340.71 599.95 340.7C645.02 340.7 686.08 322.52 715.56 292.78C745.06 263.04 763.46 222.21 763.46 177.13C763.46 156.12 759.45 135.83 752.14 117.41L762.04 107.98C771.25 129.22 776.21 152.83 776.21 177.37C776.21 225.99 756.39 270.37 724.53 302.23C692.68 334.09 648.56 353.92 599.94 353.92C551.33 353.92 507.2 334.09 475.35 302.23C443.49 270.37 423.67 226.23 423.67 177.37C423.67 142.68 433.82 110.34 451.05 82.9601L483.84 114.83C473.7 133.47 468.03 154.95 468.03 177.37C468.03 213.95 482.89 246.76 506.73 270.84C530.56 294.67 563.61 309.31 599.94 309.31C636.27 309.31 669.32 294.44 693.15 270.84C716.97 246.99 731.84 213.95 731.84 177.37C731.84 170.29 731.13 163.44 730.19 156.59L595.94 282.4L500.13 188V129.93L595.9 220.17L663.19 155.67V125.21L595.84 190.36L495.89 96.4201L495.65 96.6601L486.44 87.9201C489.98 83.4301 493.76 79.1801 497.77 75.1801C523.95 48.9701 560.06 32.9301 599.94 32.9301C639.82 32.9301 675.91 49.2101 702.11 75.1801C709.43 82.7201 716.03 90.9901 721.93 99.7201L735.86 86.7301C729.72 77.7601 723.11 69.5101 715.55 61.9501C685.83 32.2101 645 14.0301 599.93 14.0301C554.86 14.0301 513.8 32.4501 484.3 61.9501C480.29 65.9601 476.28 70.4501 472.51 74.9401L463.3 66.2001C467.08 61.7101 471.09 57.2301 475.34 52.9801C506.95 20.6501 550.84 0.810059 599.69 0.810059C648.54 0.810059 692.43 20.6401 724.28 52.5001C735.14 63.1201 744.34 75.1701 751.89 88.3701L742.45 97.3401L728.3 110.8L718.62 119.76C712.02 106.31 703.29 94.2701 692.91 83.8901C669.08 60.0601 636.03 45.4201 599.7 45.4201C563.37 45.4201 530.09 60.0601 506.49 83.8901C505.56 84.8501 504.62 85.5601 503.91 86.5001Z" fill="#423E3C"/>
<path d="M1088.41 628.77L987.36 505.71H1030.86L1131.42 628.5L1088.41 628.77Z" fill="#BB9F4D"/>
<path d="M748.69 437.91C730.04 418.07 705.17 408.31 674.1 408.31C656.75 408.31 641.7 411.01 628.61 416.73C618.8 420.76 609.64 427.49 601.46 436.24C592.95 444.98 586.41 454.74 581.83 465.84C575.29 480.97 572.02 499.47 572.02 521.68C572.02 556.32 581.18 583.23 600.48 602.75C618.8 622.59 643.67 632.34 675.07 632.34C705.82 632.34 730.69 622.59 749.02 602.75C767.34 582.89 776.83 555.64 776.83 520.67C776.82 485.35 767.34 457.77 748.69 437.91ZM716.63 575.84C705.5 588.62 691.76 594.67 674.74 594.67C657.4 594.67 643.66 588.29 632.53 575.84C621.41 563.06 615.85 544.56 615.85 520C615.85 495.45 621.41 476.6 632.21 463.82C643.01 451.37 657.08 445.32 674.74 445.32C692.4 445.32 706.48 451.37 716.95 463.49C727.75 475.94 732.98 494.44 732.98 519.33C732.98 544.21 727.42 563.39 716.63 575.84Z" fill="#423E3C"/>
<path d="M260.85 628.54L276.16 587.53H337.74L288.56 465.7L231.53 628.54H187.49L263.08 414.47L312.38 414.52L398.9 628.54H260.85Z" fill="#423E3C"/>
<path d="M136.63 628.54H87.2501L0.870117 414.47H45.2901L111.1 577.47L168 414.47H212.22L136.63 628.54Z" fill="#423E3C"/>
<path d="M421.76 628.54V414.47H463.75V587.6H564.37V628.54H421.76Z" fill="#423E3C"/>
<path d="M941.29 607.5C925.62 623.01 906.02 630.77 882.48 630.77C859.3 630.77 839.79 623.11 823.93 607.78C808.08 592.45 800.16 573.09 800.16 549.68V414.11H842.15V549.69C842.15 561.59 846.13 571.53 854.11 579.51C862.08 587.49 871.53 591.48 882.48 591.48C893.42 591.48 902.92 587.49 910.98 579.51C919.05 571.53 923.08 561.59 923.08 549.69V414.11H964.8V549.69C964.8 572.73 956.96 592 941.29 607.5Z" fill="#423E3C"/>
<path d="M1177.13 475.95C1177.13 470.25 1176.58 464.54 1175.28 458.98C1174.1 453.92 1172.28 449 1169.77 444.45C1168.85 442.79 1167.84 441.13 1166.8 439.49C1166.12 438.45 1165.35 437.43 1164.57 436.42C1164.1 435.79 1163.62 435.18 1163.11 434.58C1162.03 433.3 1160.91 432.03 1159.72 430.83C1156.94 428 1153.98 425.61 1150.88 423.55C1150.6 423.37 1150.32 423.2 1150.04 423.03C1147.17 421.2 1144.16 419.68 1141.02 418.44C1140.15 418.11 1139.3 417.88 1138.44 417.61C1136.16 416.84 1133.81 416.23 1131.4 415.74C1130.27 415.51 1129.15 415.27 1127.98 415.06C1124.42 414.54 1120.77 414.2 1116.92 414.2L1014.31 414.1V414.11L988.19 414.15L1021.8 450.11L1067.49 450.03L1114.24 450.07C1122.03 450.07 1128.5 452.32 1133.74 457.65C1138.99 462.98 1141.61 469.65 1141.61 477.66C1141.61 485.55 1139.02 492.18 1133.83 497.58C1128.64 502.97 1122.1 505.67 1114.18 505.67H1113.44V505.7H1045.38L1145.98 628.77L1189.14 628.11L1116.76 539.64C1132.04 538.97 1177.13 531.17 1177.13 475.95Z" fill="#423E3C"/>
</svg>
